<mxfile host="app.diagrams.net" modified="2023-09-21T03:30:38.545Z" agent="Mozilla/5.0 (Macintosh; Intel Mac OS X 10_15_7) AppleWebKit/537.36 (KHTML, like Gecko) Chrome/116.0.0.0 Safari/537.36" version="21.8.0" etag="AGcCCfe3OwRXzjqWztLJ" type="github">
  <diagram name="Page-1" id="h2hX-PNgpPhxcFBH7jZg">
    <mxGraphModel>
      <root>
        <mxCell id="0" />
        <mxCell id="1" parent="0" />
      </root>
    </mxGraphModel>
  </diagram>
</mxfile>
